<svg width="671" height="480" viewBox="0 0 671 480" fill="none" xmlns="http://www.w3.org/2000/svg">
<g filter="url(#filter0_d_737_1468)">
<rect x="35.8706" y="17" width="600" height="410" rx="30" fill="white"/>
</g>
<path d="M146.885 157.077L255.871 94.1547L364.856 157.077V282.923L255.871 345.845L146.885 282.923V157.077Z" stroke="#EEEEF7" stroke-width="2"/>
<path d="M184.99 179.077L255.871 138.155L326.751 179.077V260.923L255.871 301.845L184.99 260.923V179.077Z" stroke="#EEEEF7" stroke-width="2"/>
<path d="M198.284 187.015L256.234 139.292L337.95 171.394L343.802 269.403L256.216 321.468L191.947 254.278L198.284 187.015Z" stroke="#0088F0" stroke-width="4"/>
<path d="M172.392 172.392L255.232 126.637L301.11 194.966L331.313 264H256.145L203.66 249.338L172.392 172.392Z" stroke="#EF2A82" stroke-width="4"/>
<path d="M231.756 206.077L255.871 192.155L279.985 206.077V233.923L255.871 247.845L231.756 233.923V206.077Z" stroke="#EEEEF7" stroke-width="2"/>
<path d="M496.398 153.232H498.94C500.185 153.232 501.211 153.027 502.02 152.616C502.841 152.193 503.451 151.622 503.849 150.903C504.26 150.171 504.465 149.35 504.465 148.439C504.465 147.36 504.285 146.456 503.926 145.724C503.566 144.992 503.027 144.441 502.309 144.068C501.59 143.696 500.679 143.51 499.575 143.51C498.574 143.51 497.688 143.709 496.918 144.107C496.161 144.492 495.564 145.044 495.128 145.763C494.704 146.481 494.492 147.328 494.492 148.304H490.931C490.931 146.879 491.29 145.583 492.009 144.415C492.727 143.247 493.735 142.316 495.031 141.623C496.34 140.93 497.855 140.584 499.575 140.584C501.269 140.584 502.751 140.885 504.022 141.489C505.293 142.079 506.281 142.965 506.987 144.145C507.693 145.313 508.046 146.77 508.046 148.516C508.046 149.222 507.879 149.979 507.545 150.787C507.224 151.583 506.717 152.328 506.024 153.021C505.344 153.714 504.458 154.285 503.368 154.734C502.277 155.17 500.967 155.389 499.44 155.389H496.398V153.232ZM496.398 156.159V154.022H499.44C501.224 154.022 502.7 154.234 503.868 154.657C505.036 155.081 505.954 155.645 506.621 156.351C507.301 157.057 507.776 157.834 508.046 158.681C508.328 159.515 508.469 160.349 508.469 161.184C508.469 162.493 508.245 163.654 507.796 164.668C507.359 165.682 506.737 166.542 505.928 167.248C505.132 167.954 504.195 168.487 503.117 168.846C502.039 169.205 500.865 169.385 499.594 169.385C498.375 169.385 497.226 169.212 496.148 168.865C495.083 168.519 494.139 168.018 493.318 167.364C492.496 166.696 491.855 165.881 491.393 164.919C490.931 163.943 490.7 162.833 490.7 161.588H494.261C494.261 162.563 494.473 163.417 494.897 164.148C495.333 164.88 495.949 165.451 496.745 165.862C497.553 166.26 498.503 166.459 499.594 166.459C500.685 166.459 501.622 166.273 502.405 165.9C503.201 165.515 503.81 164.938 504.234 164.168C504.67 163.398 504.888 162.429 504.888 161.261C504.888 160.093 504.645 159.136 504.157 158.392C503.669 157.635 502.976 157.076 502.078 156.717C501.192 156.345 500.146 156.159 498.94 156.159H496.398ZM532.323 159.566V162.493H512.07V160.394L524.622 140.969H527.529L524.41 146.59L516.113 159.566H532.323ZM528.415 140.969V169H524.853V140.969H528.415ZM535.249 147.842V146.359C535.249 145.294 535.48 144.325 535.942 143.452C536.404 142.58 537.065 141.88 537.925 141.354C538.785 140.828 539.806 140.564 540.986 140.564C542.193 140.564 543.22 140.828 544.067 141.354C544.927 141.88 545.588 142.58 546.05 143.452C546.512 144.325 546.743 145.294 546.743 146.359V147.842C546.743 148.881 546.512 149.838 546.05 150.71C545.601 151.583 544.946 152.283 544.086 152.809C543.239 153.335 542.219 153.598 541.025 153.598C539.831 153.598 538.798 153.335 537.925 152.809C537.065 152.283 536.404 151.583 535.942 150.71C535.48 149.838 535.249 148.881 535.249 147.842ZM537.925 146.359V147.842C537.925 148.432 538.034 148.991 538.253 149.517C538.484 150.043 538.83 150.473 539.292 150.807C539.754 151.128 540.332 151.288 541.025 151.288C541.718 151.288 542.289 151.128 542.738 150.807C543.188 150.473 543.521 150.043 543.739 149.517C543.958 148.991 544.067 148.432 544.067 147.842V146.359C544.067 145.756 543.951 145.191 543.72 144.665C543.502 144.126 543.162 143.696 542.7 143.375C542.251 143.042 541.679 142.875 540.986 142.875C540.306 142.875 539.735 143.042 539.273 143.375C538.824 143.696 538.484 144.126 538.253 144.665C538.034 145.191 537.925 145.756 537.925 146.359ZM548.899 163.629V162.127C548.899 161.074 549.13 160.112 549.592 159.239C550.054 158.366 550.715 157.667 551.575 157.141C552.435 156.614 553.455 156.351 554.636 156.351C555.843 156.351 556.869 156.614 557.717 157.141C558.577 157.667 559.238 158.366 559.7 159.239C560.162 160.112 560.393 161.074 560.393 162.127V163.629C560.393 164.681 560.162 165.644 559.7 166.516C559.25 167.389 558.596 168.089 557.736 168.615C556.889 169.141 555.868 169.404 554.675 169.404C553.481 169.404 552.454 169.141 551.594 168.615C550.734 168.089 550.067 167.389 549.592 166.516C549.13 165.644 548.899 164.681 548.899 163.629ZM551.575 162.127V163.629C551.575 164.219 551.684 164.784 551.902 165.323C552.133 165.849 552.48 166.279 552.942 166.613C553.404 166.934 553.982 167.094 554.675 167.094C555.368 167.094 555.939 166.934 556.388 166.613C556.85 166.279 557.19 165.849 557.409 165.323C557.627 164.797 557.736 164.232 557.736 163.629V162.127C557.736 161.524 557.62 160.959 557.389 160.433C557.171 159.907 556.831 159.483 556.369 159.162C555.92 158.828 555.342 158.662 554.636 158.662C553.956 158.662 553.385 158.828 552.923 159.162C552.474 159.483 552.133 159.907 551.902 160.433C551.684 160.959 551.575 161.524 551.575 162.127ZM555.522 144.954L541.834 166.863L539.831 165.592L553.52 143.683L555.522 144.954Z" fill="#EF2A82"/>
<path d="M489.679 195.351V195.148C489.679 194.463 489.779 193.827 489.978 193.241C490.177 192.649 490.464 192.137 490.839 191.703C491.214 191.264 491.668 190.924 492.202 190.684C492.735 190.438 493.333 190.314 493.995 190.314C494.663 190.314 495.263 190.438 495.796 190.684C496.335 190.924 496.792 191.264 497.167 191.703C497.548 192.137 497.838 192.649 498.038 193.241C498.237 193.827 498.336 194.463 498.336 195.148V195.351C498.336 196.036 498.237 196.672 498.038 197.258C497.838 197.844 497.548 198.356 497.167 198.796C496.792 199.229 496.338 199.569 495.805 199.815C495.278 200.056 494.68 200.176 494.012 200.176C493.344 200.176 492.744 200.056 492.21 199.815C491.677 199.569 491.22 199.229 490.839 198.796C490.464 198.356 490.177 197.844 489.978 197.258C489.779 196.672 489.679 196.036 489.679 195.351ZM491.305 195.148V195.351C491.305 195.825 491.361 196.273 491.472 196.695C491.583 197.111 491.75 197.48 491.973 197.803C492.202 198.125 492.486 198.38 492.826 198.567C493.166 198.749 493.561 198.84 494.012 198.84C494.458 198.84 494.847 198.749 495.181 198.567C495.521 198.38 495.802 198.125 496.025 197.803C496.248 197.48 496.415 197.111 496.526 196.695C496.643 196.273 496.702 195.825 496.702 195.351V195.148C496.702 194.68 496.643 194.237 496.526 193.821C496.415 193.399 496.245 193.027 496.016 192.705C495.793 192.377 495.512 192.119 495.172 191.932C494.838 191.744 494.446 191.65 493.995 191.65C493.549 191.65 493.157 191.744 492.817 191.932C492.483 192.119 492.202 192.377 491.973 192.705C491.75 193.027 491.583 193.399 491.472 193.821C491.361 194.237 491.305 194.68 491.305 195.148ZM502.001 192.318V203.656H500.367V190.49H501.861L502.001 192.318ZM508.409 195.166V195.351C508.409 196.042 508.327 196.684 508.163 197.275C507.999 197.861 507.758 198.371 507.442 198.805C507.131 199.238 506.748 199.575 506.291 199.815C505.833 200.056 505.309 200.176 504.717 200.176C504.114 200.176 503.581 200.076 503.118 199.877C502.655 199.678 502.262 199.388 501.94 199.007C501.618 198.626 501.36 198.169 501.167 197.636C500.979 197.103 500.85 196.502 500.78 195.834V194.85C500.85 194.146 500.982 193.517 501.175 192.96C501.369 192.403 501.624 191.929 501.94 191.536C502.262 191.138 502.652 190.836 503.109 190.631C503.566 190.42 504.093 190.314 504.691 190.314C505.289 190.314 505.819 190.432 506.282 190.666C506.745 190.895 507.134 191.223 507.451 191.65C507.767 192.078 508.004 192.591 508.163 193.188C508.327 193.78 508.409 194.439 508.409 195.166ZM506.774 195.351V195.166C506.774 194.691 506.724 194.246 506.625 193.83C506.525 193.408 506.37 193.039 506.159 192.723C505.954 192.4 505.69 192.148 505.368 191.967C505.045 191.779 504.662 191.686 504.216 191.686C503.806 191.686 503.449 191.756 503.144 191.896C502.845 192.037 502.59 192.228 502.379 192.468C502.168 192.702 501.996 192.972 501.861 193.276C501.732 193.575 501.635 193.886 501.571 194.208V196.484C501.688 196.895 501.852 197.281 502.063 197.645C502.274 198.002 502.555 198.292 502.907 198.515C503.258 198.731 503.701 198.84 504.234 198.84C504.673 198.84 505.051 198.749 505.368 198.567C505.69 198.38 505.954 198.125 506.159 197.803C506.37 197.48 506.525 197.111 506.625 196.695C506.724 196.273 506.774 195.825 506.774 195.351ZM514.464 190.49V191.738H509.323V190.49H514.464ZM511.063 188.179H512.689V197.645C512.689 197.967 512.739 198.21 512.838 198.374C512.938 198.538 513.067 198.646 513.225 198.699C513.383 198.752 513.553 198.778 513.735 198.778C513.87 198.778 514.01 198.767 514.157 198.743C514.309 198.714 514.423 198.69 514.5 198.673L514.508 200C514.379 200.041 514.209 200.079 513.999 200.114C513.793 200.155 513.544 200.176 513.251 200.176C512.853 200.176 512.487 200.097 512.153 199.938C511.819 199.78 511.552 199.517 511.353 199.147C511.16 198.772 511.063 198.269 511.063 197.636V188.179ZM518.138 190.49V200H516.503V190.49H518.138ZM516.38 187.968C516.38 187.704 516.459 187.481 516.618 187.3C516.782 187.118 517.022 187.027 517.338 187.027C517.649 187.027 517.886 187.118 518.05 187.3C518.22 187.481 518.305 187.704 518.305 187.968C518.305 188.22 518.22 188.437 518.05 188.618C517.886 188.794 517.649 188.882 517.338 188.882C517.022 188.882 516.782 188.794 516.618 188.618C516.459 188.437 516.38 188.22 516.38 187.968ZM520.318 195.351V195.148C520.318 194.463 520.417 193.827 520.617 193.241C520.816 192.649 521.103 192.137 521.478 191.703C521.853 191.264 522.307 190.924 522.84 190.684C523.374 190.438 523.971 190.314 524.633 190.314C525.301 190.314 525.902 190.438 526.435 190.684C526.974 190.924 527.431 191.264 527.806 191.703C528.187 192.137 528.477 192.649 528.676 193.241C528.875 193.827 528.975 194.463 528.975 195.148V195.351C528.975 196.036 528.875 196.672 528.676 197.258C528.477 197.844 528.187 198.356 527.806 198.796C527.431 199.229 526.977 199.569 526.444 199.815C525.917 200.056 525.319 200.176 524.651 200.176C523.983 200.176 523.382 200.056 522.849 199.815C522.316 199.569 521.859 199.229 521.478 198.796C521.103 198.356 520.816 197.844 520.617 197.258C520.417 196.672 520.318 196.036 520.318 195.351ZM521.944 195.148V195.351C521.944 195.825 522 196.273 522.111 196.695C522.222 197.111 522.389 197.48 522.612 197.803C522.84 198.125 523.125 198.38 523.464 198.567C523.804 198.749 524.2 198.84 524.651 198.84C525.096 198.84 525.486 198.749 525.82 198.567C526.16 198.38 526.441 198.125 526.664 197.803C526.886 197.48 527.053 197.111 527.165 196.695C527.282 196.273 527.34 195.825 527.34 195.351V195.148C527.34 194.68 527.282 194.237 527.165 193.821C527.053 193.399 526.883 193.027 526.655 192.705C526.432 192.377 526.151 192.119 525.811 191.932C525.477 191.744 525.084 191.65 524.633 191.65C524.188 191.65 523.795 191.744 523.456 191.932C523.122 192.119 522.84 192.377 522.612 192.705C522.389 193.027 522.222 193.399 522.111 193.821C522 194.237 521.944 194.68 521.944 195.148ZM532.64 192.521V200H531.014V190.49H532.552L532.64 192.521ZM532.253 194.885L531.577 194.858C531.583 194.208 531.679 193.607 531.867 193.057C532.054 192.5 532.318 192.017 532.658 191.606C532.998 191.196 533.402 190.88 533.871 190.657C534.345 190.429 534.87 190.314 535.444 190.314C535.913 190.314 536.334 190.379 536.709 190.508C537.084 190.631 537.404 190.83 537.667 191.105C537.937 191.381 538.142 191.738 538.283 192.178C538.423 192.611 538.494 193.142 538.494 193.769V200H536.859V193.751C536.859 193.253 536.786 192.854 536.639 192.556C536.493 192.251 536.279 192.031 535.998 191.896C535.716 191.756 535.371 191.686 534.96 191.686C534.556 191.686 534.187 191.771 533.853 191.94C533.525 192.11 533.241 192.345 533 192.644C532.766 192.942 532.582 193.285 532.447 193.672C532.318 194.053 532.253 194.457 532.253 194.885ZM550.596 187.133V200H548.97V189.163L545.692 190.358V188.891L550.341 187.133H550.596Z" fill="#8794BA"/>
<path d="M509.567 278.074V281H491.219V278.439L500.403 268.217C501.532 266.959 502.405 265.893 503.021 265.021C503.65 264.135 504.086 263.346 504.33 262.653C504.587 261.947 504.715 261.228 504.715 260.496C504.715 259.572 504.523 258.738 504.138 257.994C503.765 257.236 503.214 256.633 502.482 256.184C501.75 255.735 500.865 255.51 499.825 255.51C498.58 255.51 497.541 255.754 496.706 256.242C495.885 256.717 495.269 257.384 494.858 258.244C494.447 259.104 494.242 260.092 494.242 261.209H490.68C490.68 259.63 491.027 258.186 491.72 256.877C492.413 255.568 493.44 254.528 494.8 253.758C496.161 252.975 497.836 252.584 499.825 252.584C501.596 252.584 503.111 252.898 504.369 253.527C505.626 254.143 506.589 255.016 507.256 256.145C507.937 257.262 508.277 258.571 508.277 260.073C508.277 260.894 508.136 261.729 507.853 262.576C507.584 263.41 507.205 264.244 506.717 265.078C506.243 265.913 505.684 266.734 505.042 267.543C504.414 268.351 503.74 269.147 503.021 269.93L495.513 278.074H509.567ZM516.921 278.016H517.287C519.34 278.016 521.009 277.727 522.292 277.15C523.576 276.572 524.564 275.795 525.257 274.82C525.95 273.845 526.425 272.747 526.682 271.528C526.939 270.296 527.067 269.032 527.067 267.735V263.442C527.067 262.171 526.919 261.042 526.624 260.054C526.342 259.065 525.944 258.237 525.431 257.57C524.93 256.903 524.359 256.396 523.717 256.049C523.075 255.703 522.395 255.529 521.676 255.529C520.855 255.529 520.117 255.696 519.462 256.03C518.821 256.351 518.275 256.806 517.826 257.397C517.39 257.987 517.056 258.68 516.825 259.476C516.594 260.272 516.478 261.138 516.478 262.075C516.478 262.909 516.581 263.718 516.786 264.501C516.992 265.284 517.306 265.99 517.73 266.619C518.153 267.247 518.679 267.748 519.308 268.12C519.95 268.48 520.701 268.659 521.561 268.659C522.357 268.659 523.101 268.505 523.794 268.197C524.5 267.876 525.123 267.446 525.662 266.907C526.214 266.355 526.65 265.733 526.971 265.04C527.304 264.347 527.497 263.622 527.548 262.864H529.243C529.243 263.93 529.031 264.982 528.607 266.022C528.197 267.049 527.619 267.985 526.875 268.833C526.13 269.68 525.257 270.36 524.256 270.873C523.255 271.374 522.164 271.624 520.983 271.624C519.597 271.624 518.397 271.355 517.383 270.816C516.369 270.277 515.535 269.558 514.88 268.659C514.239 267.761 513.757 266.76 513.436 265.656C513.128 264.539 512.974 263.41 512.974 262.268C512.974 260.933 513.161 259.681 513.533 258.513C513.905 257.345 514.457 256.319 515.188 255.433C515.92 254.535 516.825 253.835 517.903 253.335C518.994 252.834 520.252 252.584 521.676 252.584C523.281 252.584 524.648 252.905 525.777 253.546C526.907 254.188 527.824 255.048 528.53 256.126C529.249 257.204 529.775 258.417 530.109 259.765C530.443 261.112 530.609 262.499 530.609 263.923V265.213C530.609 266.664 530.513 268.14 530.321 269.641C530.141 271.13 529.788 272.555 529.262 273.915C528.748 275.276 527.998 276.495 527.009 277.573C526.021 278.638 524.731 279.485 523.14 280.114C521.561 280.73 519.61 281.039 517.287 281.039H516.921V278.016ZM535.249 259.842V258.359C535.249 257.294 535.48 256.325 535.942 255.452C536.404 254.58 537.065 253.88 537.925 253.354C538.785 252.828 539.806 252.564 540.986 252.564C542.193 252.564 543.22 252.828 544.067 253.354C544.927 253.88 545.588 254.58 546.05 255.452C546.512 256.325 546.743 257.294 546.743 258.359V259.842C546.743 260.881 546.512 261.838 546.05 262.71C545.601 263.583 544.946 264.283 544.086 264.809C543.239 265.335 542.219 265.598 541.025 265.598C539.831 265.598 538.798 265.335 537.925 264.809C537.065 264.283 536.404 263.583 535.942 262.71C535.48 261.838 535.249 260.881 535.249 259.842ZM537.925 258.359V259.842C537.925 260.432 538.034 260.991 538.253 261.517C538.484 262.043 538.83 262.473 539.292 262.807C539.754 263.128 540.332 263.288 541.025 263.288C541.718 263.288 542.289 263.128 542.738 262.807C543.188 262.473 543.521 262.043 543.739 261.517C543.958 260.991 544.067 260.432 544.067 259.842V258.359C544.067 257.756 543.951 257.191 543.72 256.665C543.502 256.126 543.162 255.696 542.7 255.375C542.251 255.042 541.679 254.875 540.986 254.875C540.306 254.875 539.735 255.042 539.273 255.375C538.824 255.696 538.484 256.126 538.253 256.665C538.034 257.191 537.925 257.756 537.925 258.359ZM548.899 275.629V274.127C548.899 273.074 549.13 272.112 549.592 271.239C550.054 270.366 550.715 269.667 551.575 269.141C552.435 268.614 553.455 268.351 554.636 268.351C555.843 268.351 556.869 268.614 557.717 269.141C558.577 269.667 559.238 270.366 559.7 271.239C560.162 272.112 560.393 273.074 560.393 274.127V275.629C560.393 276.681 560.162 277.644 559.7 278.516C559.25 279.389 558.596 280.089 557.736 280.615C556.889 281.141 555.868 281.404 554.675 281.404C553.481 281.404 552.454 281.141 551.594 280.615C550.734 280.089 550.067 279.389 549.592 278.516C549.13 277.644 548.899 276.681 548.899 275.629ZM551.575 274.127V275.629C551.575 276.219 551.684 276.784 551.902 277.323C552.133 277.849 552.48 278.279 552.942 278.613C553.404 278.934 553.982 279.094 554.675 279.094C555.368 279.094 555.939 278.934 556.388 278.613C556.85 278.279 557.19 277.849 557.409 277.323C557.627 276.797 557.736 276.232 557.736 275.629V274.127C557.736 273.524 557.62 272.959 557.389 272.433C557.171 271.907 556.831 271.483 556.369 271.162C555.92 270.828 555.342 270.662 554.636 270.662C553.956 270.662 553.385 270.828 552.923 271.162C552.474 271.483 552.133 271.907 551.902 272.433C551.684 272.959 551.575 273.524 551.575 274.127ZM555.522 256.954L541.834 278.863L539.831 277.592L553.52 255.683L555.522 256.954Z" fill="#0088F0"/>
<path d="M489.679 307.351V307.148C489.679 306.463 489.779 305.827 489.978 305.241C490.177 304.649 490.464 304.137 490.839 303.703C491.214 303.264 491.668 302.924 492.202 302.684C492.735 302.438 493.333 302.314 493.995 302.314C494.663 302.314 495.263 302.438 495.796 302.684C496.335 302.924 496.792 303.264 497.167 303.703C497.548 304.137 497.838 304.649 498.038 305.241C498.237 305.827 498.336 306.463 498.336 307.148V307.351C498.336 308.036 498.237 308.672 498.038 309.258C497.838 309.844 497.548 310.356 497.167 310.796C496.792 311.229 496.338 311.569 495.805 311.815C495.278 312.056 494.68 312.176 494.012 312.176C493.344 312.176 492.744 312.056 492.21 311.815C491.677 311.569 491.22 311.229 490.839 310.796C490.464 310.356 490.177 309.844 489.978 309.258C489.779 308.672 489.679 308.036 489.679 307.351ZM491.305 307.148V307.351C491.305 307.825 491.361 308.273 491.472 308.695C491.583 309.111 491.75 309.48 491.973 309.803C492.202 310.125 492.486 310.38 492.826 310.567C493.166 310.749 493.561 310.84 494.012 310.84C494.458 310.84 494.847 310.749 495.181 310.567C495.521 310.38 495.802 310.125 496.025 309.803C496.248 309.48 496.415 309.111 496.526 308.695C496.643 308.273 496.702 307.825 496.702 307.351V307.148C496.702 306.68 496.643 306.237 496.526 305.821C496.415 305.399 496.245 305.027 496.016 304.705C495.793 304.377 495.512 304.119 495.172 303.932C494.838 303.744 494.446 303.65 493.995 303.65C493.549 303.65 493.157 303.744 492.817 303.932C492.483 304.119 492.202 304.377 491.973 304.705C491.75 305.027 491.583 305.399 491.472 305.821C491.361 306.237 491.305 306.68 491.305 307.148ZM502.001 304.318V315.656H500.367V302.49H501.861L502.001 304.318ZM508.409 307.166V307.351C508.409 308.042 508.327 308.684 508.163 309.275C507.999 309.861 507.758 310.371 507.442 310.805C507.131 311.238 506.748 311.575 506.291 311.815C505.833 312.056 505.309 312.176 504.717 312.176C504.114 312.176 503.581 312.076 503.118 311.877C502.655 311.678 502.262 311.388 501.94 311.007C501.618 310.626 501.36 310.169 501.167 309.636C500.979 309.103 500.85 308.502 500.78 307.834V306.85C500.85 306.146 500.982 305.517 501.175 304.96C501.369 304.403 501.624 303.929 501.94 303.536C502.262 303.138 502.652 302.836 503.109 302.631C503.566 302.42 504.093 302.314 504.691 302.314C505.289 302.314 505.819 302.432 506.282 302.666C506.745 302.895 507.134 303.223 507.451 303.65C507.767 304.078 508.004 304.591 508.163 305.188C508.327 305.78 508.409 306.439 508.409 307.166ZM506.774 307.351V307.166C506.774 306.691 506.724 306.246 506.625 305.83C506.525 305.408 506.37 305.039 506.159 304.723C505.954 304.4 505.69 304.148 505.368 303.967C505.045 303.779 504.662 303.686 504.216 303.686C503.806 303.686 503.449 303.756 503.144 303.896C502.845 304.037 502.59 304.228 502.379 304.468C502.168 304.702 501.996 304.972 501.861 305.276C501.732 305.575 501.635 305.886 501.571 306.208V308.484C501.688 308.895 501.852 309.281 502.063 309.645C502.274 310.002 502.555 310.292 502.907 310.515C503.258 310.731 503.701 310.84 504.234 310.84C504.673 310.84 505.051 310.749 505.368 310.567C505.69 310.38 505.954 310.125 506.159 309.803C506.37 309.48 506.525 309.111 506.625 308.695C506.724 308.273 506.774 307.825 506.774 307.351ZM514.464 302.49V303.738H509.323V302.49H514.464ZM511.063 300.179H512.689V309.645C512.689 309.967 512.739 310.21 512.838 310.374C512.938 310.538 513.067 310.646 513.225 310.699C513.383 310.752 513.553 310.778 513.735 310.778C513.87 310.778 514.01 310.767 514.157 310.743C514.309 310.714 514.423 310.69 514.5 310.673L514.508 312C514.379 312.041 514.209 312.079 513.999 312.114C513.793 312.155 513.544 312.176 513.251 312.176C512.853 312.176 512.487 312.097 512.153 311.938C511.819 311.78 511.552 311.517 511.353 311.147C511.16 310.772 511.063 310.269 511.063 309.636V300.179ZM518.138 302.49V312H516.503V302.49H518.138ZM516.38 299.968C516.38 299.704 516.459 299.481 516.618 299.3C516.782 299.118 517.022 299.027 517.338 299.027C517.649 299.027 517.886 299.118 518.05 299.3C518.22 299.481 518.305 299.704 518.305 299.968C518.305 300.22 518.22 300.437 518.05 300.618C517.886 300.794 517.649 300.882 517.338 300.882C517.022 300.882 516.782 300.794 516.618 300.618C516.459 300.437 516.38 300.22 516.38 299.968ZM520.318 307.351V307.148C520.318 306.463 520.417 305.827 520.617 305.241C520.816 304.649 521.103 304.137 521.478 303.703C521.853 303.264 522.307 302.924 522.84 302.684C523.374 302.438 523.971 302.314 524.633 302.314C525.301 302.314 525.902 302.438 526.435 302.684C526.974 302.924 527.431 303.264 527.806 303.703C528.187 304.137 528.477 304.649 528.676 305.241C528.875 305.827 528.975 306.463 528.975 307.148V307.351C528.975 308.036 528.875 308.672 528.676 309.258C528.477 309.844 528.187 310.356 527.806 310.796C527.431 311.229 526.977 311.569 526.444 311.815C525.917 312.056 525.319 312.176 524.651 312.176C523.983 312.176 523.382 312.056 522.849 311.815C522.316 311.569 521.859 311.229 521.478 310.796C521.103 310.356 520.816 309.844 520.617 309.258C520.417 308.672 520.318 308.036 520.318 307.351ZM521.944 307.148V307.351C521.944 307.825 522 308.273 522.111 308.695C522.222 309.111 522.389 309.48 522.612 309.803C522.84 310.125 523.125 310.38 523.464 310.567C523.804 310.749 524.2 310.84 524.651 310.84C525.096 310.84 525.486 310.749 525.82 310.567C526.16 310.38 526.441 310.125 526.664 309.803C526.886 309.48 527.053 309.111 527.165 308.695C527.282 308.273 527.34 307.825 527.34 307.351V307.148C527.34 306.68 527.282 306.237 527.165 305.821C527.053 305.399 526.883 305.027 526.655 304.705C526.432 304.377 526.151 304.119 525.811 303.932C525.477 303.744 525.084 303.65 524.633 303.65C524.188 303.65 523.795 303.744 523.456 303.932C523.122 304.119 522.84 304.377 522.612 304.705C522.389 305.027 522.222 305.399 522.111 305.821C522 306.237 521.944 306.68 521.944 307.148ZM532.64 304.521V312H531.014V302.49H532.552L532.64 304.521ZM532.253 306.885L531.577 306.858C531.583 306.208 531.679 305.607 531.867 305.057C532.054 304.5 532.318 304.017 532.658 303.606C532.998 303.196 533.402 302.88 533.871 302.657C534.345 302.429 534.87 302.314 535.444 302.314C535.913 302.314 536.334 302.379 536.709 302.508C537.084 302.631 537.404 302.83 537.667 303.105C537.937 303.381 538.142 303.738 538.283 304.178C538.423 304.611 538.494 305.142 538.494 305.769V312H536.859V305.751C536.859 305.253 536.786 304.854 536.639 304.556C536.493 304.251 536.279 304.031 535.998 303.896C535.716 303.756 535.371 303.686 534.96 303.686C534.556 303.686 534.187 303.771 533.853 303.94C533.525 304.11 533.241 304.345 533 304.644C532.766 304.942 532.582 305.285 532.447 305.672C532.318 306.053 532.253 306.457 532.253 306.885ZM553.637 310.664V312H545.261V310.831L549.454 306.164C549.969 305.59 550.368 305.104 550.649 304.705C550.936 304.301 551.135 303.94 551.247 303.624C551.364 303.302 551.422 302.974 551.422 302.64C551.422 302.218 551.334 301.837 551.159 301.497C550.989 301.151 550.737 300.876 550.403 300.671C550.069 300.466 549.665 300.363 549.19 300.363C548.622 300.363 548.147 300.475 547.766 300.697C547.391 300.914 547.11 301.219 546.922 301.611C546.735 302.004 546.641 302.455 546.641 302.965H545.015C545.015 302.244 545.173 301.585 545.49 300.987C545.806 300.39 546.275 299.915 546.896 299.563C547.517 299.206 548.282 299.027 549.19 299.027C549.999 299.027 550.69 299.171 551.264 299.458C551.838 299.739 552.278 300.138 552.583 300.653C552.893 301.163 553.048 301.761 553.048 302.446C553.048 302.821 552.984 303.202 552.855 303.589C552.732 303.97 552.559 304.351 552.336 304.731C552.12 305.112 551.865 305.487 551.572 305.856C551.285 306.226 550.977 306.589 550.649 306.946L547.221 310.664H553.637Z" fill="#8794BA"/>
<path d="M245.484 72.4219V81H244.4V73.7754L242.214 74.5723V73.5938L245.314 72.4219H245.484ZM254.05 78.6914C254.05 79.2109 253.929 79.6523 253.687 80.0156C253.449 80.375 253.125 80.6484 252.714 80.8359C252.308 81.0234 251.849 81.1172 251.337 81.1172C250.826 81.1172 250.365 81.0234 249.955 80.8359C249.544 80.6484 249.22 80.375 248.982 80.0156C248.744 79.6523 248.625 79.2109 248.625 78.6914C248.625 78.3516 248.689 78.041 248.818 77.7598C248.951 77.4746 249.136 77.2266 249.375 77.0156C249.617 76.8047 249.902 76.6426 250.23 76.5293C250.562 76.4121 250.927 76.3535 251.326 76.3535C251.849 76.3535 252.316 76.4551 252.726 76.6582C253.136 76.8574 253.458 77.1328 253.693 77.4844C253.931 77.8359 254.05 78.2383 254.05 78.6914ZM252.96 78.668C252.96 78.3516 252.892 78.0723 252.755 77.8301C252.619 77.584 252.427 77.3926 252.181 77.2559C251.935 77.1191 251.65 77.0508 251.326 77.0508C250.994 77.0508 250.707 77.1191 250.464 77.2559C250.226 77.3926 250.041 77.584 249.908 77.8301C249.775 78.0723 249.708 78.3516 249.708 78.668C249.708 78.9961 249.773 79.2773 249.902 79.5117C250.035 79.7422 250.222 79.9199 250.464 80.0449C250.71 80.166 251.001 80.2266 251.337 80.2266C251.673 80.2266 251.962 80.166 252.205 80.0449C252.447 79.9199 252.632 79.7422 252.761 79.5117C252.894 79.2773 252.96 78.9961 252.96 78.668ZM253.851 74.6895C253.851 75.1035 253.742 75.4766 253.523 75.8086C253.304 76.1406 253.005 76.4023 252.626 76.5938C252.248 76.7852 251.818 76.8809 251.337 76.8809C250.849 76.8809 250.414 76.7852 250.031 76.5938C249.652 76.4023 249.355 76.1406 249.14 75.8086C248.925 75.4766 248.818 75.1035 248.818 74.6895C248.818 74.1934 248.925 73.7715 249.14 73.4238C249.359 73.0762 249.658 72.8105 250.037 72.627C250.416 72.4434 250.847 72.3516 251.332 72.3516C251.82 72.3516 252.253 72.4434 252.632 72.627C253.011 72.8105 253.308 73.0762 253.523 73.4238C253.742 73.7715 253.851 74.1934 253.851 74.6895ZM252.767 74.707C252.767 74.4219 252.707 74.1699 252.585 73.9512C252.464 73.7324 252.296 73.5605 252.082 73.4355C251.867 73.3066 251.617 73.2422 251.332 73.2422C251.046 73.2422 250.796 73.3027 250.582 73.4238C250.371 73.541 250.205 73.709 250.083 73.9277C249.966 74.1465 249.908 74.4062 249.908 74.707C249.908 75 249.966 75.2559 250.083 75.4746C250.205 75.6934 250.373 75.8633 250.587 75.9844C250.802 76.1055 251.052 76.166 251.337 76.166C251.623 76.166 251.871 76.1055 252.082 75.9844C252.296 75.8633 252.464 75.6934 252.585 75.4746C252.707 75.2559 252.767 75 252.767 74.707ZM257.794 76.9277V77.8184H254.935V76.9277H257.794ZM264.328 80.1094V81H258.744V80.2207L261.539 77.1094C261.882 76.7266 262.148 76.4023 262.335 76.1367C262.527 75.8672 262.66 75.627 262.734 75.416C262.812 75.2012 262.851 74.9824 262.851 74.7598C262.851 74.4785 262.792 74.2246 262.675 73.998C262.562 73.7676 262.394 73.584 262.171 73.4473C261.949 73.3105 261.679 73.2422 261.363 73.2422C260.984 73.2422 260.667 73.3164 260.414 73.4648C260.164 73.6094 259.976 73.8125 259.851 74.0742C259.726 74.3359 259.664 74.6367 259.664 74.9766H258.58C258.58 74.4961 258.685 74.0566 258.896 73.6582C259.107 73.2598 259.419 72.9434 259.833 72.709C260.248 72.4707 260.757 72.3516 261.363 72.3516C261.902 72.3516 262.363 72.4473 262.746 72.6387C263.128 72.8262 263.421 73.0918 263.625 73.4355C263.832 73.7754 263.935 74.1738 263.935 74.6309C263.935 74.8809 263.892 75.1348 263.806 75.3926C263.724 75.6465 263.609 75.9004 263.46 76.1543C263.316 76.4082 263.146 76.6582 262.951 76.9043C262.759 77.1504 262.554 77.3926 262.335 77.6309L260.05 80.1094H264.328ZM271.253 78.1289V79.0195H265.089V78.3809L268.91 72.4688H269.794L268.845 74.1797L266.32 78.1289H271.253ZM270.064 72.4688V81H268.98V72.4688H270.064Z" fill="#8794BA"/>
<path d="M388.511 158.109V159H382.927V158.221L385.722 155.109C386.066 154.727 386.332 154.402 386.519 154.137C386.71 153.867 386.843 153.627 386.917 153.416C386.996 153.201 387.035 152.982 387.035 152.76C387.035 152.479 386.976 152.225 386.859 151.998C386.746 151.768 386.578 151.584 386.355 151.447C386.132 151.311 385.863 151.242 385.546 151.242C385.167 151.242 384.851 151.316 384.597 151.465C384.347 151.609 384.16 151.812 384.035 152.074C383.91 152.336 383.847 152.637 383.847 152.977H382.763C382.763 152.496 382.869 152.057 383.08 151.658C383.291 151.26 383.603 150.943 384.017 150.709C384.431 150.471 384.941 150.352 385.546 150.352C386.085 150.352 386.546 150.447 386.929 150.639C387.312 150.826 387.605 151.092 387.808 151.436C388.015 151.775 388.119 152.174 388.119 152.631C388.119 152.881 388.076 153.135 387.99 153.393C387.908 153.646 387.792 153.9 387.644 154.154C387.5 154.408 387.33 154.658 387.134 154.904C386.943 155.15 386.738 155.393 386.519 155.631L384.234 158.109H388.511ZM391.042 154.939L390.175 154.717L390.603 150.469H394.98V151.471H391.523L391.265 153.791C391.421 153.701 391.619 153.617 391.857 153.539C392.099 153.461 392.376 153.422 392.689 153.422C393.083 153.422 393.437 153.49 393.75 153.627C394.062 153.76 394.328 153.951 394.546 154.201C394.769 154.451 394.939 154.752 395.056 155.104C395.173 155.455 395.232 155.848 395.232 156.281C395.232 156.691 395.175 157.068 395.062 157.412C394.953 157.756 394.787 158.057 394.564 158.314C394.341 158.568 394.06 158.766 393.72 158.906C393.384 159.047 392.988 159.117 392.531 159.117C392.187 159.117 391.861 159.07 391.552 158.977C391.248 158.879 390.974 158.732 390.732 158.537C390.494 158.338 390.298 158.092 390.146 157.799C389.998 157.502 389.904 157.154 389.865 156.756H390.896C390.943 157.076 391.037 157.346 391.177 157.564C391.318 157.783 391.501 157.949 391.728 158.062C391.958 158.172 392.226 158.227 392.531 158.227C392.789 158.227 393.017 158.182 393.216 158.092C393.416 158.002 393.583 157.873 393.72 157.705C393.857 157.537 393.96 157.334 394.031 157.096C394.105 156.857 394.142 156.59 394.142 156.293C394.142 156.023 394.105 155.773 394.031 155.543C393.957 155.312 393.845 155.111 393.697 154.939C393.552 154.768 393.375 154.635 393.164 154.541C392.953 154.443 392.71 154.395 392.437 154.395C392.074 154.395 391.798 154.443 391.611 154.541C391.427 154.639 391.238 154.771 391.042 154.939ZM398.794 154.928V155.818H395.935V154.928H398.794ZM401.32 154.201H402.093C402.472 154.201 402.785 154.139 403.031 154.014C403.281 153.885 403.466 153.711 403.587 153.492C403.712 153.27 403.775 153.02 403.775 152.742C403.775 152.414 403.72 152.139 403.611 151.916C403.501 151.693 403.337 151.525 403.119 151.412C402.9 151.299 402.623 151.242 402.287 151.242C401.982 151.242 401.712 151.303 401.478 151.424C401.248 151.541 401.066 151.709 400.933 151.928C400.804 152.146 400.74 152.404 400.74 152.701H399.656C399.656 152.268 399.765 151.873 399.984 151.518C400.203 151.162 400.509 150.879 400.904 150.668C401.302 150.457 401.763 150.352 402.287 150.352C402.802 150.352 403.253 150.443 403.64 150.627C404.027 150.807 404.328 151.076 404.542 151.436C404.757 151.791 404.865 152.234 404.865 152.766C404.865 152.98 404.814 153.211 404.712 153.457C404.615 153.699 404.46 153.926 404.25 154.137C404.042 154.348 403.773 154.521 403.441 154.658C403.109 154.791 402.71 154.857 402.246 154.857H401.32V154.201ZM401.32 155.092V154.441H402.246C402.789 154.441 403.238 154.506 403.593 154.635C403.949 154.764 404.228 154.936 404.431 155.15C404.638 155.365 404.783 155.602 404.865 155.859C404.951 156.113 404.994 156.367 404.994 156.621C404.994 157.02 404.925 157.373 404.789 157.682C404.656 157.99 404.466 158.252 404.22 158.467C403.978 158.682 403.693 158.844 403.365 158.953C403.037 159.062 402.679 159.117 402.292 159.117C401.921 159.117 401.572 159.064 401.244 158.959C400.919 158.854 400.632 158.701 400.382 158.502C400.132 158.299 399.937 158.051 399.796 157.758C399.656 157.461 399.585 157.123 399.585 156.744H400.669C400.669 157.041 400.734 157.301 400.863 157.523C400.996 157.746 401.183 157.92 401.425 158.045C401.671 158.166 401.96 158.227 402.292 158.227C402.625 158.227 402.91 158.17 403.148 158.057C403.39 157.939 403.576 157.764 403.705 157.529C403.837 157.295 403.904 157 403.904 156.645C403.904 156.289 403.83 155.998 403.681 155.771C403.533 155.541 403.322 155.371 403.048 155.262C402.779 155.148 402.46 155.092 402.093 155.092H401.32ZM412.253 156.129V157.02H406.089V156.381L409.91 150.469H410.794L409.845 152.18L407.32 156.129H412.253ZM411.064 150.469V159H409.98V150.469H411.064Z" fill="#8794BA"/>
<path d="M384.503 285.201H385.277C385.656 285.201 385.968 285.139 386.214 285.014C386.464 284.885 386.65 284.711 386.771 284.492C386.896 284.27 386.958 284.02 386.958 283.742C386.958 283.414 386.904 283.139 386.794 282.916C386.685 282.693 386.521 282.525 386.302 282.412C386.083 282.299 385.806 282.242 385.47 282.242C385.166 282.242 384.896 282.303 384.662 282.424C384.431 282.541 384.25 282.709 384.117 282.928C383.988 283.146 383.923 283.404 383.923 283.701H382.839C382.839 283.268 382.949 282.873 383.167 282.518C383.386 282.162 383.693 281.879 384.087 281.668C384.486 281.457 384.947 281.352 385.47 281.352C385.986 281.352 386.437 281.443 386.824 281.627C387.21 281.807 387.511 282.076 387.726 282.436C387.941 282.791 388.048 283.234 388.048 283.766C388.048 283.98 387.998 284.211 387.896 284.457C387.798 284.699 387.644 284.926 387.433 285.137C387.226 285.348 386.957 285.521 386.625 285.658C386.292 285.791 385.894 285.857 385.429 285.857H384.503V285.201ZM384.503 286.092V285.441H385.429C385.972 285.441 386.421 285.506 386.777 285.635C387.132 285.764 387.412 285.936 387.615 286.15C387.822 286.365 387.966 286.602 388.048 286.859C388.134 287.113 388.177 287.367 388.177 287.621C388.177 288.02 388.109 288.373 387.972 288.682C387.839 288.99 387.65 289.252 387.404 289.467C387.162 289.682 386.876 289.844 386.548 289.953C386.22 290.062 385.863 290.117 385.476 290.117C385.105 290.117 384.755 290.064 384.427 289.959C384.103 289.854 383.816 289.701 383.566 289.502C383.316 289.299 383.121 289.051 382.98 288.758C382.839 288.461 382.769 288.123 382.769 287.744H383.853C383.853 288.041 383.917 288.301 384.046 288.523C384.179 288.746 384.367 288.92 384.609 289.045C384.855 289.166 385.144 289.227 385.476 289.227C385.808 289.227 386.093 289.17 386.332 289.057C386.574 288.939 386.759 288.764 386.888 288.529C387.021 288.295 387.087 288 387.087 287.645C387.087 287.289 387.013 286.998 386.865 286.771C386.716 286.541 386.505 286.371 386.232 286.262C385.962 286.148 385.644 286.092 385.277 286.092H384.503ZM391.042 285.939L390.175 285.717L390.603 281.469H394.98V282.471H391.523L391.265 284.791C391.421 284.701 391.619 284.617 391.857 284.539C392.099 284.461 392.376 284.422 392.689 284.422C393.083 284.422 393.437 284.49 393.75 284.627C394.062 284.76 394.328 284.951 394.546 285.201C394.769 285.451 394.939 285.752 395.056 286.104C395.173 286.455 395.232 286.848 395.232 287.281C395.232 287.691 395.175 288.068 395.062 288.412C394.953 288.756 394.787 289.057 394.564 289.314C394.341 289.568 394.06 289.766 393.72 289.906C393.384 290.047 392.988 290.117 392.531 290.117C392.187 290.117 391.861 290.07 391.552 289.977C391.248 289.879 390.974 289.732 390.732 289.537C390.494 289.338 390.298 289.092 390.146 288.799C389.998 288.502 389.904 288.154 389.865 287.756H390.896C390.943 288.076 391.037 288.346 391.177 288.564C391.318 288.783 391.501 288.949 391.728 289.062C391.958 289.172 392.226 289.227 392.531 289.227C392.789 289.227 393.017 289.182 393.216 289.092C393.416 289.002 393.583 288.873 393.72 288.705C393.857 288.537 393.96 288.334 394.031 288.096C394.105 287.857 394.142 287.59 394.142 287.293C394.142 287.023 394.105 286.773 394.031 286.543C393.957 286.312 393.845 286.111 393.697 285.939C393.552 285.768 393.375 285.635 393.164 285.541C392.953 285.443 392.71 285.395 392.437 285.395C392.074 285.395 391.798 285.443 391.611 285.541C391.427 285.639 391.238 285.771 391.042 285.939ZM398.794 285.928V286.818H395.935V285.928H398.794ZM405.503 287.129V288.02H399.339V287.381L403.16 281.469H404.044L403.095 283.18L400.57 287.129H405.503ZM404.314 281.469V290H403.23V281.469H404.314ZM412.253 287.129V288.02H406.089V287.381L409.91 281.469H410.794L409.845 283.18L407.32 287.129H412.253ZM411.064 281.469V290H409.98V281.469H411.064Z" fill="#8794BA"/>
<path d="M247.687 372.129V373.02H241.523V372.381L245.343 366.469H246.228L245.279 368.18L242.753 372.129H247.687ZM246.498 366.469V375H245.414V366.469H246.498ZM250.042 370.939L249.175 370.717L249.603 366.469H253.98V367.471H250.523L250.265 369.791C250.421 369.701 250.619 369.617 250.857 369.539C251.099 369.461 251.376 369.422 251.689 369.422C252.083 369.422 252.437 369.49 252.75 369.627C253.062 369.76 253.328 369.951 253.546 370.201C253.769 370.451 253.939 370.752 254.056 371.104C254.173 371.455 254.232 371.848 254.232 372.281C254.232 372.691 254.175 373.068 254.062 373.412C253.953 373.756 253.787 374.057 253.564 374.314C253.341 374.568 253.06 374.766 252.72 374.906C252.384 375.047 251.988 375.117 251.531 375.117C251.187 375.117 250.861 375.07 250.552 374.977C250.248 374.879 249.974 374.732 249.732 374.537C249.494 374.338 249.298 374.092 249.146 373.799C248.998 373.502 248.904 373.154 248.865 372.756H249.896C249.943 373.076 250.037 373.346 250.177 373.564C250.318 373.783 250.501 373.949 250.728 374.062C250.958 374.172 251.226 374.227 251.531 374.227C251.789 374.227 252.017 374.182 252.216 374.092C252.416 374.002 252.583 373.873 252.72 373.705C252.857 373.537 252.96 373.334 253.031 373.096C253.105 372.857 253.142 372.59 253.142 372.293C253.142 372.023 253.105 371.773 253.031 371.543C252.957 371.312 252.845 371.111 252.697 370.939C252.552 370.768 252.375 370.635 252.164 370.541C251.953 370.443 251.71 370.395 251.437 370.395C251.074 370.395 250.798 370.443 250.611 370.541C250.427 370.639 250.238 370.771 250.042 370.939ZM257.794 370.928V371.818H254.935V370.928H257.794ZM260.109 370.939L259.242 370.717L259.669 366.469H264.046V367.471H260.589L260.332 369.791C260.488 369.701 260.685 369.617 260.923 369.539C261.166 369.461 261.443 369.422 261.755 369.422C262.15 369.422 262.503 369.49 262.816 369.627C263.128 369.76 263.394 369.951 263.613 370.201C263.835 370.451 264.005 370.752 264.123 371.104C264.24 371.455 264.298 371.848 264.298 372.281C264.298 372.691 264.242 373.068 264.128 373.412C264.019 373.756 263.853 374.057 263.63 374.314C263.408 374.568 263.126 374.766 262.787 374.906C262.451 375.047 262.054 375.117 261.597 375.117C261.253 375.117 260.927 375.07 260.619 374.977C260.314 374.879 260.041 374.732 259.798 374.537C259.56 374.338 259.365 374.092 259.212 373.799C259.064 373.502 258.97 373.154 258.931 372.756H259.962C260.009 373.076 260.103 373.346 260.244 373.564C260.384 373.783 260.568 373.949 260.794 374.062C261.025 374.172 261.292 374.227 261.597 374.227C261.855 374.227 262.083 374.182 262.283 374.092C262.482 374.002 262.65 373.873 262.787 373.705C262.923 373.537 263.027 373.334 263.097 373.096C263.171 372.857 263.208 372.59 263.208 372.293C263.208 372.023 263.171 371.773 263.097 371.543C263.023 371.312 262.912 371.111 262.763 370.939C262.619 370.768 262.441 370.635 262.23 370.541C262.019 370.443 261.777 370.395 261.503 370.395C261.14 370.395 260.865 370.443 260.677 370.541C260.494 370.639 260.304 370.771 260.109 370.939ZM271.253 372.129V373.02H265.089V372.381L268.91 366.469H269.794L268.845 368.18L266.32 372.129H271.253ZM270.064 366.469V375H268.98V366.469H270.064Z" fill="#8794BA"/>
<path d="M102.292 285.939L101.425 285.717L101.853 281.469H106.23V282.471H102.773L102.515 284.791C102.671 284.701 102.869 284.617 103.107 284.539C103.349 284.461 103.626 284.422 103.939 284.422C104.333 284.422 104.687 284.49 105 284.627C105.312 284.76 105.578 284.951 105.796 285.201C106.019 285.451 106.189 285.752 106.306 286.104C106.423 286.455 106.482 286.848 106.482 287.281C106.482 287.691 106.425 288.068 106.312 288.412C106.203 288.756 106.037 289.057 105.814 289.314C105.591 289.568 105.31 289.766 104.97 289.906C104.634 290.047 104.238 290.117 103.781 290.117C103.437 290.117 103.111 290.07 102.802 289.977C102.498 289.879 102.224 289.732 101.982 289.537C101.744 289.338 101.548 289.092 101.396 288.799C101.248 288.502 101.154 288.154 101.115 287.756H102.146C102.193 288.076 102.287 288.346 102.427 288.564C102.568 288.783 102.751 288.949 102.978 289.062C103.208 289.172 103.476 289.227 103.781 289.227C104.039 289.227 104.267 289.182 104.466 289.092C104.666 289.002 104.833 288.873 104.97 288.705C105.107 288.537 105.21 288.334 105.281 288.096C105.355 287.857 105.392 287.59 105.392 287.293C105.392 287.023 105.355 286.773 105.281 286.543C105.207 286.312 105.095 286.111 104.947 285.939C104.802 285.768 104.625 285.635 104.414 285.541C104.203 285.443 103.96 285.395 103.687 285.395C103.324 285.395 103.048 285.443 102.861 285.541C102.677 285.639 102.488 285.771 102.292 285.939ZM109.042 285.939L108.175 285.717L108.603 281.469H112.98V282.471H109.523L109.265 284.791C109.421 284.701 109.619 284.617 109.857 284.539C110.099 284.461 110.376 284.422 110.689 284.422C111.083 284.422 111.437 284.49 111.75 284.627C112.062 284.76 112.328 284.951 112.546 285.201C112.769 285.451 112.939 285.752 113.056 286.104C113.173 286.455 113.232 286.848 113.232 287.281C113.232 287.691 113.175 288.068 113.062 288.412C112.953 288.756 112.787 289.057 112.564 289.314C112.341 289.568 112.06 289.766 111.72 289.906C111.384 290.047 110.988 290.117 110.531 290.117C110.187 290.117 109.861 290.07 109.552 289.977C109.248 289.879 108.974 289.732 108.732 289.537C108.494 289.338 108.298 289.092 108.146 288.799C107.998 288.502 107.904 288.154 107.865 287.756H108.896C108.943 288.076 109.037 288.346 109.177 288.564C109.318 288.783 109.501 288.949 109.728 289.062C109.958 289.172 110.226 289.227 110.531 289.227C110.789 289.227 111.017 289.182 111.216 289.092C111.416 289.002 111.583 288.873 111.72 288.705C111.857 288.537 111.96 288.334 112.031 288.096C112.105 287.857 112.142 287.59 112.142 287.293C112.142 287.023 112.105 286.773 112.031 286.543C111.957 286.312 111.845 286.111 111.697 285.939C111.552 285.768 111.375 285.635 111.164 285.541C110.953 285.443 110.71 285.395 110.437 285.395C110.074 285.395 109.798 285.443 109.611 285.541C109.427 285.639 109.238 285.771 109.042 285.939ZM116.794 285.928V286.818H113.935V285.928H116.794ZM121.898 281.457H121.992V282.377H121.898C121.324 282.377 120.843 282.471 120.457 282.658C120.07 282.842 119.763 283.09 119.537 283.402C119.31 283.711 119.146 284.059 119.044 284.445C118.947 284.832 118.898 285.225 118.898 285.623V286.877C118.898 287.256 118.943 287.592 119.033 287.885C119.123 288.174 119.246 288.418 119.402 288.617C119.558 288.816 119.734 288.967 119.929 289.068C120.128 289.17 120.335 289.221 120.55 289.221C120.8 289.221 121.023 289.174 121.218 289.08C121.414 288.982 121.578 288.848 121.71 288.676C121.847 288.5 121.951 288.293 122.021 288.055C122.091 287.816 122.126 287.555 122.126 287.27C122.126 287.016 122.095 286.771 122.033 286.537C121.97 286.299 121.875 286.088 121.746 285.904C121.617 285.717 121.455 285.57 121.259 285.465C121.068 285.355 120.839 285.301 120.574 285.301C120.273 285.301 119.992 285.375 119.73 285.523C119.472 285.668 119.259 285.859 119.091 286.098C118.927 286.332 118.833 286.588 118.81 286.865L118.236 286.859C118.291 286.422 118.392 286.049 118.541 285.74C118.693 285.428 118.88 285.174 119.103 284.979C119.33 284.779 119.582 284.635 119.859 284.545C120.14 284.451 120.437 284.404 120.75 284.404C121.175 284.404 121.542 284.484 121.851 284.645C122.16 284.805 122.414 285.02 122.613 285.289C122.812 285.555 122.958 285.855 123.052 286.191C123.15 286.523 123.199 286.865 123.199 287.217C123.199 287.619 123.142 287.996 123.029 288.348C122.916 288.699 122.746 289.008 122.519 289.273C122.296 289.539 122.021 289.746 121.693 289.895C121.365 290.043 120.984 290.117 120.55 290.117C120.089 290.117 119.687 290.023 119.343 289.836C119 289.645 118.714 289.391 118.488 289.074C118.261 288.758 118.091 288.406 117.978 288.02C117.865 287.633 117.808 287.24 117.808 286.842V286.332C117.808 285.73 117.869 285.141 117.99 284.562C118.111 283.984 118.32 283.461 118.617 282.992C118.917 282.523 119.333 282.15 119.865 281.873C120.396 281.596 121.074 281.457 121.898 281.457ZM130.253 287.129V288.02H124.089V287.381L127.91 281.469H128.794L127.845 283.18L125.32 287.129H130.253ZM129.064 281.469V290H127.98V281.469H129.064Z" fill="#8794BA"/>
<path d="M110.085 150.457H110.179V151.377H110.085C109.511 151.377 109.031 151.471 108.644 151.658C108.257 151.842 107.951 152.09 107.724 152.402C107.498 152.711 107.333 153.059 107.232 153.445C107.134 153.832 107.085 154.225 107.085 154.623V155.877C107.085 156.256 107.13 156.592 107.22 156.885C107.31 157.174 107.433 157.418 107.589 157.617C107.746 157.816 107.921 157.967 108.117 158.068C108.316 158.17 108.523 158.221 108.738 158.221C108.988 158.221 109.21 158.174 109.406 158.08C109.601 157.982 109.765 157.848 109.898 157.676C110.035 157.5 110.138 157.293 110.208 157.055C110.279 156.816 110.314 156.555 110.314 156.27C110.314 156.016 110.283 155.771 110.22 155.537C110.158 155.299 110.062 155.088 109.933 154.904C109.804 154.717 109.642 154.57 109.447 154.465C109.255 154.355 109.027 154.301 108.761 154.301C108.46 154.301 108.179 154.375 107.917 154.523C107.66 154.668 107.447 154.859 107.279 155.098C107.115 155.332 107.021 155.588 106.998 155.865L106.423 155.859C106.478 155.422 106.58 155.049 106.728 154.74C106.88 154.428 107.068 154.174 107.291 153.979C107.517 153.779 107.769 153.635 108.046 153.545C108.328 153.451 108.625 153.404 108.937 153.404C109.363 153.404 109.73 153.484 110.039 153.645C110.347 153.805 110.601 154.02 110.8 154.289C111 154.555 111.146 154.855 111.24 155.191C111.337 155.523 111.386 155.865 111.386 156.217C111.386 156.619 111.33 156.996 111.216 157.348C111.103 157.699 110.933 158.008 110.707 158.273C110.484 158.539 110.208 158.746 109.88 158.895C109.552 159.043 109.171 159.117 108.738 159.117C108.277 159.117 107.875 159.023 107.531 158.836C107.187 158.645 106.902 158.391 106.675 158.074C106.449 157.758 106.279 157.406 106.166 157.02C106.052 156.633 105.996 156.24 105.996 155.842V155.332C105.996 154.73 106.056 154.141 106.177 153.562C106.298 152.984 106.507 152.461 106.804 151.992C107.105 151.523 107.521 151.15 108.052 150.873C108.583 150.596 109.261 150.457 110.085 150.457ZM114.046 154.939L113.179 154.717L113.607 150.469H117.984V151.471H114.527L114.269 153.791C114.425 153.701 114.623 153.617 114.861 153.539C115.103 153.461 115.38 153.422 115.693 153.422C116.087 153.422 116.441 153.49 116.753 153.627C117.066 153.76 117.332 153.951 117.55 154.201C117.773 154.451 117.943 154.752 118.06 155.104C118.177 155.455 118.236 155.848 118.236 156.281C118.236 156.691 118.179 157.068 118.066 157.412C117.957 157.756 117.791 158.057 117.568 158.314C117.345 158.568 117.064 158.766 116.724 158.906C116.388 159.047 115.992 159.117 115.535 159.117C115.191 159.117 114.865 159.07 114.556 158.977C114.251 158.879 113.978 158.732 113.736 158.537C113.498 158.338 113.302 158.092 113.15 157.799C113.001 157.502 112.908 157.154 112.869 156.756H113.9C113.947 157.076 114.041 157.346 114.181 157.564C114.322 157.783 114.505 157.949 114.732 158.062C114.962 158.172 115.23 158.227 115.535 158.227C115.792 158.227 116.021 158.182 116.22 158.092C116.419 158.002 116.587 157.873 116.724 157.705C116.861 157.537 116.964 157.334 117.035 157.096C117.109 156.857 117.146 156.59 117.146 156.293C117.146 156.023 117.109 155.773 117.035 155.543C116.96 155.312 116.849 155.111 116.701 154.939C116.556 154.768 116.378 154.635 116.167 154.541C115.957 154.443 115.714 154.395 115.441 154.395C115.078 154.395 114.802 154.443 114.615 154.541C114.431 154.639 114.242 154.771 114.046 154.939ZM125.021 154.424V155.443H119.173V154.424H125.021ZM122.642 151.934V158.145H121.558V151.934H122.642Z" fill="#8794BA"/>
<defs>
<filter id="filter0_d_737_1468" x="0.870605" y="0" width="670" height="480" filterUnits="userSpaceOnUse" color-interpolation-filters="sRGB">
<feFlood flood-opacity="0" result="BackgroundImageFix"/>
<feColorMatrix in="SourceAlpha" type="matrix" values="0 0 0 0 0 0 0 0 0 0 0 0 0 0 0 0 0 0 127 0" result="hardAlpha"/>
<feMorphology radius="15" operator="erode" in="SourceAlpha" result="effect1_dropShadow_737_1468"/>
<feOffset dy="18"/>
<feGaussianBlur stdDeviation="25"/>
<feColorMatrix type="matrix" values="0 0 0 0 0.0996452 0 0 0 0 0.164326 0 0 0 0 0.350284 0 0 0 0.2 0"/>
<feBlend mode="normal" in2="BackgroundImageFix" result="effect1_dropShadow_737_1468"/>
<feBlend mode="normal" in="SourceGraphic" in2="effect1_dropShadow_737_1468" result="shape"/>
</filter>
</defs>
</svg>
