<svg width="671" height="480" viewBox="0 0 671 480" fill="none" xmlns="http://www.w3.org/2000/svg">
<g filter="url(#filter0_d_737_1470)">
<rect x="35.8706" y="17" width="600" height="410" rx="30" fill="white"/>
</g>
<rect x="134.871" y="89" width="1" height="271" fill="#EEEEF7"/>
<rect x="197.871" y="89" width="1" height="271" fill="#EEEEF7"/>
<rect x="260.871" y="89" width="1" height="271" fill="#EEEEF7"/>
<rect x="323.871" y="89" width="1" height="271" fill="#EEEEF7"/>
<rect x="386.871" y="89" width="1" height="271" fill="#EEEEF7"/>
<rect x="449.871" y="89" width="1" height="271" fill="#EEEEF7"/>
<rect x="512.871" y="89" width="1" height="271" fill="#EEEEF7"/>
<rect x="575.871" y="89" width="1" height="271" fill="#EEEEF7"/>
<path d="M95.6343 109.939L94.7671 109.717L95.1948 105.469H99.5718V106.471H96.1147L95.8569 108.791C96.0132 108.701 96.2104 108.617 96.4487 108.539C96.6909 108.461 96.9683 108.422 97.2808 108.422C97.6753 108.422 98.0288 108.49 98.3413 108.627C98.6538 108.76 98.9194 108.951 99.1382 109.201C99.3608 109.451 99.5308 109.752 99.6479 110.104C99.7651 110.455 99.8237 110.848 99.8237 111.281C99.8237 111.691 99.7671 112.068 99.6538 112.412C99.5444 112.756 99.3784 113.057 99.1558 113.314C98.9331 113.568 98.6519 113.766 98.312 113.906C97.9761 114.047 97.5796 114.117 97.1226 114.117C96.7788 114.117 96.4526 114.07 96.144 113.977C95.8394 113.879 95.5659 113.732 95.3237 113.537C95.0854 113.338 94.8901 113.092 94.7378 112.799C94.5894 112.502 94.4956 112.154 94.4565 111.756H95.4878C95.5347 112.076 95.6284 112.346 95.769 112.564C95.9097 112.783 96.0933 112.949 96.3198 113.062C96.5503 113.172 96.8179 113.227 97.1226 113.227C97.3804 113.227 97.6089 113.182 97.8081 113.092C98.0073 113.002 98.1753 112.873 98.312 112.705C98.4487 112.537 98.5522 112.334 98.6226 112.096C98.6968 111.857 98.7339 111.59 98.7339 111.293C98.7339 111.023 98.6968 110.773 98.6226 110.543C98.5483 110.312 98.437 110.111 98.2886 109.939C98.144 109.768 97.9663 109.635 97.7554 109.541C97.5444 109.443 97.3022 109.395 97.0288 109.395C96.6655 109.395 96.3901 109.443 96.2026 109.541C96.019 109.639 95.8296 109.771 95.6343 109.939ZM106.779 111.129V112.02H100.615V111.381L104.435 105.469H105.32L104.371 107.18L101.845 111.129H106.779ZM105.589 105.469V114H104.505V105.469H105.589ZM110.136 109.928V110.818H107.277V109.928H110.136ZM115.24 105.457H115.333V106.377H115.24C114.666 106.377 114.185 106.471 113.798 106.658C113.412 106.842 113.105 107.09 112.878 107.402C112.652 107.711 112.488 108.059 112.386 108.445C112.289 108.832 112.24 109.225 112.24 109.623V110.877C112.24 111.256 112.285 111.592 112.375 111.885C112.464 112.174 112.587 112.418 112.744 112.617C112.9 112.816 113.076 112.967 113.271 113.068C113.47 113.17 113.677 113.221 113.892 113.221C114.142 113.221 114.365 113.174 114.56 113.08C114.755 112.982 114.919 112.848 115.052 112.676C115.189 112.5 115.292 112.293 115.363 112.055C115.433 111.816 115.468 111.555 115.468 111.27C115.468 111.016 115.437 110.771 115.375 110.537C115.312 110.299 115.216 110.088 115.087 109.904C114.958 109.717 114.796 109.57 114.601 109.465C114.41 109.355 114.181 109.301 113.916 109.301C113.615 109.301 113.333 109.375 113.072 109.523C112.814 109.668 112.601 109.859 112.433 110.098C112.269 110.332 112.175 110.588 112.152 110.865L111.578 110.859C111.632 110.422 111.734 110.049 111.882 109.74C112.035 109.428 112.222 109.174 112.445 108.979C112.671 108.779 112.923 108.635 113.201 108.545C113.482 108.451 113.779 108.404 114.091 108.404C114.517 108.404 114.884 108.484 115.193 108.645C115.501 108.805 115.755 109.02 115.955 109.289C116.154 109.555 116.3 109.855 116.394 110.191C116.492 110.523 116.541 110.865 116.541 111.217C116.541 111.619 116.484 111.996 116.371 112.348C116.257 112.699 116.087 113.008 115.861 113.273C115.638 113.539 115.363 113.746 115.035 113.895C114.707 114.043 114.326 114.117 113.892 114.117C113.431 114.117 113.029 114.023 112.685 113.836C112.341 113.645 112.056 113.391 111.83 113.074C111.603 112.758 111.433 112.406 111.32 112.02C111.207 111.633 111.15 111.24 111.15 110.842V110.332C111.15 109.73 111.21 109.141 111.332 108.562C111.453 107.984 111.662 107.461 111.958 106.992C112.259 106.523 112.675 106.15 113.207 105.873C113.738 105.596 114.416 105.457 115.24 105.457ZM119.201 109.939L118.333 109.717L118.761 105.469H123.138V106.471H119.681L119.423 108.791C119.58 108.701 119.777 108.617 120.015 108.539C120.257 108.461 120.535 108.422 120.847 108.422C121.242 108.422 121.595 108.49 121.908 108.627C122.22 108.76 122.486 108.951 122.705 109.201C122.927 109.451 123.097 109.752 123.214 110.104C123.332 110.455 123.39 110.848 123.39 111.281C123.39 111.691 123.333 112.068 123.22 112.412C123.111 112.756 122.945 113.057 122.722 113.314C122.5 113.568 122.218 113.766 121.878 113.906C121.542 114.047 121.146 114.117 120.689 114.117C120.345 114.117 120.019 114.07 119.71 113.977C119.406 113.879 119.132 113.732 118.89 113.537C118.652 113.338 118.457 113.092 118.304 112.799C118.156 112.502 118.062 112.154 118.023 111.756H119.054C119.101 112.076 119.195 112.346 119.335 112.564C119.476 112.783 119.66 112.949 119.886 113.062C120.117 113.172 120.384 113.227 120.689 113.227C120.947 113.227 121.175 113.182 121.375 113.092C121.574 113.002 121.742 112.873 121.878 112.705C122.015 112.537 122.119 112.334 122.189 112.096C122.263 111.857 122.3 111.59 122.3 111.293C122.3 111.023 122.263 110.773 122.189 110.543C122.115 110.312 122.003 110.111 121.855 109.939C121.71 109.768 121.533 109.635 121.322 109.541C121.111 109.443 120.869 109.395 120.595 109.395C120.232 109.395 119.957 109.443 119.769 109.541C119.585 109.639 119.396 109.771 119.201 109.939Z" fill="#8794BA"/>
<path d="M100.029 167.129V168.02H93.8647V167.381L97.6851 161.469H98.5698L97.6206 163.18L95.0952 167.129H100.029ZM98.8394 161.469V170H97.7554V161.469H98.8394ZM102.384 165.939L101.517 165.717L101.945 161.469H106.322V162.471H102.865L102.607 164.791C102.763 164.701 102.96 164.617 103.199 164.539C103.441 164.461 103.718 164.422 104.031 164.422C104.425 164.422 104.779 164.49 105.091 164.627C105.404 164.76 105.669 164.951 105.888 165.201C106.111 165.451 106.281 165.752 106.398 166.104C106.515 166.455 106.574 166.848 106.574 167.281C106.574 167.691 106.517 168.068 106.404 168.412C106.294 168.756 106.128 169.057 105.906 169.314C105.683 169.568 105.402 169.766 105.062 169.906C104.726 170.047 104.33 170.117 103.873 170.117C103.529 170.117 103.203 170.07 102.894 169.977C102.589 169.879 102.316 169.732 102.074 169.537C101.835 169.338 101.64 169.092 101.488 168.799C101.339 168.502 101.246 168.154 101.207 167.756H102.238C102.285 168.076 102.378 168.346 102.519 168.564C102.66 168.783 102.843 168.949 103.07 169.062C103.3 169.172 103.568 169.227 103.873 169.227C104.13 169.227 104.359 169.182 104.558 169.092C104.757 169.002 104.925 168.873 105.062 168.705C105.199 168.537 105.302 168.334 105.373 168.096C105.447 167.857 105.484 167.59 105.484 167.293C105.484 167.023 105.447 166.773 105.373 166.543C105.298 166.312 105.187 166.111 105.039 165.939C104.894 165.768 104.716 165.635 104.505 165.541C104.294 165.443 104.052 165.395 103.779 165.395C103.416 165.395 103.14 165.443 102.953 165.541C102.769 165.639 102.58 165.771 102.384 165.939ZM110.136 165.928V166.818H107.277V165.928H110.136ZM112.451 165.939L111.583 165.717L112.011 161.469H116.388V162.471H112.931L112.673 164.791C112.83 164.701 113.027 164.617 113.265 164.539C113.507 164.461 113.785 164.422 114.097 164.422C114.492 164.422 114.845 164.49 115.158 164.627C115.47 164.76 115.736 164.951 115.955 165.201C116.177 165.451 116.347 165.752 116.464 166.104C116.582 166.455 116.64 166.848 116.64 167.281C116.64 167.691 116.583 168.068 116.47 168.412C116.361 168.756 116.195 169.057 115.972 169.314C115.75 169.568 115.468 169.766 115.128 169.906C114.792 170.047 114.396 170.117 113.939 170.117C113.595 170.117 113.269 170.07 112.96 169.977C112.656 169.879 112.382 169.732 112.14 169.537C111.902 169.338 111.707 169.092 111.554 168.799C111.406 168.502 111.312 168.154 111.273 167.756H112.304C112.351 168.076 112.445 168.346 112.585 168.564C112.726 168.783 112.91 168.949 113.136 169.062C113.367 169.172 113.634 169.227 113.939 169.227C114.197 169.227 114.425 169.182 114.625 169.092C114.824 169.002 114.992 168.873 115.128 168.705C115.265 168.537 115.369 168.334 115.439 168.096C115.513 167.857 115.55 167.59 115.55 167.293C115.55 167.023 115.513 166.773 115.439 166.543C115.365 166.312 115.253 166.111 115.105 165.939C114.96 165.768 114.783 165.635 114.572 165.541C114.361 165.443 114.119 165.395 113.845 165.395C113.482 165.395 113.207 165.443 113.019 165.541C112.835 165.639 112.646 165.771 112.451 165.939ZM123.595 167.129V168.02H117.431V167.381L121.251 161.469H122.136L121.187 163.18L118.662 167.129H123.595ZM122.406 161.469V170H121.322V161.469H122.406Z" fill="#8794BA"/>
<path d="M95.8452 221.201H96.6187C96.9976 221.201 97.3101 221.139 97.5562 221.014C97.8062 220.885 97.9917 220.711 98.1128 220.492C98.2378 220.27 98.3003 220.02 98.3003 219.742C98.3003 219.414 98.2456 219.139 98.1362 218.916C98.0269 218.693 97.8628 218.525 97.644 218.412C97.4253 218.299 97.1479 218.242 96.812 218.242C96.5073 218.242 96.2378 218.303 96.0034 218.424C95.7729 218.541 95.5913 218.709 95.4585 218.928C95.3296 219.146 95.2651 219.404 95.2651 219.701H94.1812C94.1812 219.268 94.2905 218.873 94.5093 218.518C94.728 218.162 95.0347 217.879 95.4292 217.668C95.8276 217.457 96.2886 217.352 96.812 217.352C97.3276 217.352 97.7788 217.443 98.1655 217.627C98.5522 217.807 98.853 218.076 99.0679 218.436C99.2827 218.791 99.3901 219.234 99.3901 219.766C99.3901 219.98 99.3394 220.211 99.2378 220.457C99.1401 220.699 98.9858 220.926 98.7749 221.137C98.5679 221.348 98.2983 221.521 97.9663 221.658C97.6343 221.791 97.2358 221.857 96.771 221.857H95.8452V221.201ZM95.8452 222.092V221.441H96.771C97.314 221.441 97.7632 221.506 98.1187 221.635C98.4741 221.764 98.7534 221.936 98.9565 222.15C99.1636 222.365 99.3081 222.602 99.3901 222.859C99.4761 223.113 99.519 223.367 99.519 223.621C99.519 224.02 99.4507 224.373 99.314 224.682C99.1812 224.99 98.9917 225.252 98.7456 225.467C98.5034 225.682 98.2183 225.844 97.8901 225.953C97.562 226.062 97.2046 226.117 96.8179 226.117C96.4468 226.117 96.0972 226.064 95.769 225.959C95.4448 225.854 95.1577 225.701 94.9077 225.502C94.6577 225.299 94.4624 225.051 94.3218 224.758C94.1812 224.461 94.1108 224.123 94.1108 223.744H95.1948C95.1948 224.041 95.2593 224.301 95.3882 224.523C95.521 224.746 95.7085 224.92 95.9507 225.045C96.1968 225.166 96.4858 225.227 96.8179 225.227C97.1499 225.227 97.4351 225.17 97.6733 225.057C97.9155 224.939 98.1011 224.764 98.23 224.529C98.3628 224.295 98.4292 224 98.4292 223.645C98.4292 223.289 98.355 222.998 98.2065 222.771C98.0581 222.541 97.8472 222.371 97.5737 222.262C97.3042 222.148 96.9858 222.092 96.6187 222.092H95.8452ZM102.384 221.939L101.517 221.717L101.945 217.469H106.322V218.471H102.865L102.607 220.791C102.763 220.701 102.96 220.617 103.199 220.539C103.441 220.461 103.718 220.422 104.031 220.422C104.425 220.422 104.779 220.49 105.091 220.627C105.404 220.76 105.669 220.951 105.888 221.201C106.111 221.451 106.281 221.752 106.398 222.104C106.515 222.455 106.574 222.848 106.574 223.281C106.574 223.691 106.517 224.068 106.404 224.412C106.294 224.756 106.128 225.057 105.906 225.314C105.683 225.568 105.402 225.766 105.062 225.906C104.726 226.047 104.33 226.117 103.873 226.117C103.529 226.117 103.203 226.07 102.894 225.977C102.589 225.879 102.316 225.732 102.074 225.537C101.835 225.338 101.64 225.092 101.488 224.799C101.339 224.502 101.246 224.154 101.207 223.756H102.238C102.285 224.076 102.378 224.346 102.519 224.564C102.66 224.783 102.843 224.949 103.07 225.062C103.3 225.172 103.568 225.227 103.873 225.227C104.13 225.227 104.359 225.182 104.558 225.092C104.757 225.002 104.925 224.873 105.062 224.705C105.199 224.537 105.302 224.334 105.373 224.096C105.447 223.857 105.484 223.59 105.484 223.293C105.484 223.023 105.447 222.773 105.373 222.543C105.298 222.312 105.187 222.111 105.039 221.939C104.894 221.768 104.716 221.635 104.505 221.541C104.294 221.443 104.052 221.395 103.779 221.395C103.416 221.395 103.14 221.443 102.953 221.541C102.769 221.639 102.58 221.771 102.384 221.939ZM110.136 221.928V222.818H107.277V221.928H110.136ZM116.845 223.129V224.02H110.681V223.381L114.501 217.469H115.386L114.437 219.18L111.912 223.129H116.845ZM115.656 217.469V226H114.572V217.469H115.656ZM123.595 223.129V224.02H117.431V223.381L121.251 217.469H122.136L121.187 219.18L118.662 223.129H123.595ZM122.406 217.469V226H121.322V217.469H122.406Z" fill="#8794BA"/>
<path d="M99.853 281.109V282H94.269V281.221L97.064 278.109C97.4077 277.727 97.6733 277.402 97.8608 277.137C98.0522 276.867 98.1851 276.627 98.2593 276.416C98.3374 276.201 98.3765 275.982 98.3765 275.76C98.3765 275.479 98.3179 275.225 98.2007 274.998C98.0874 274.768 97.9194 274.584 97.6968 274.447C97.4741 274.311 97.2046 274.242 96.8882 274.242C96.5093 274.242 96.1929 274.316 95.939 274.465C95.689 274.609 95.5015 274.812 95.3765 275.074C95.2515 275.336 95.189 275.637 95.189 275.977H94.105C94.105 275.496 94.2104 275.057 94.4214 274.658C94.6323 274.26 94.9448 273.943 95.3589 273.709C95.7729 273.471 96.2827 273.352 96.8882 273.352C97.4272 273.352 97.8882 273.447 98.271 273.639C98.6538 273.826 98.9468 274.092 99.1499 274.436C99.3569 274.775 99.4604 275.174 99.4604 275.631C99.4604 275.881 99.4175 276.135 99.3315 276.393C99.2495 276.646 99.1343 276.9 98.9858 277.154C98.8413 277.408 98.6714 277.658 98.4761 277.904C98.2847 278.15 98.0796 278.393 97.8608 278.631L95.5757 281.109H99.853ZM102.384 277.939L101.517 277.717L101.945 273.469H106.322V274.471H102.865L102.607 276.791C102.763 276.701 102.96 276.617 103.199 276.539C103.441 276.461 103.718 276.422 104.031 276.422C104.425 276.422 104.779 276.49 105.091 276.627C105.404 276.76 105.669 276.951 105.888 277.201C106.111 277.451 106.281 277.752 106.398 278.104C106.515 278.455 106.574 278.848 106.574 279.281C106.574 279.691 106.517 280.068 106.404 280.412C106.294 280.756 106.128 281.057 105.906 281.314C105.683 281.568 105.402 281.766 105.062 281.906C104.726 282.047 104.33 282.117 103.873 282.117C103.529 282.117 103.203 282.07 102.894 281.977C102.589 281.879 102.316 281.732 102.074 281.537C101.835 281.338 101.64 281.092 101.488 280.799C101.339 280.502 101.246 280.154 101.207 279.756H102.238C102.285 280.076 102.378 280.346 102.519 280.564C102.66 280.783 102.843 280.949 103.07 281.062C103.3 281.172 103.568 281.227 103.873 281.227C104.13 281.227 104.359 281.182 104.558 281.092C104.757 281.002 104.925 280.873 105.062 280.705C105.199 280.537 105.302 280.334 105.373 280.096C105.447 279.857 105.484 279.59 105.484 279.293C105.484 279.023 105.447 278.773 105.373 278.543C105.298 278.312 105.187 278.111 105.039 277.939C104.894 277.768 104.716 277.635 104.505 277.541C104.294 277.443 104.052 277.395 103.779 277.395C103.416 277.395 103.14 277.443 102.953 277.541C102.769 277.639 102.58 277.771 102.384 277.939ZM110.136 277.928V278.818H107.277V277.928H110.136ZM112.662 277.201H113.435C113.814 277.201 114.126 277.139 114.373 277.014C114.623 276.885 114.808 276.711 114.929 276.492C115.054 276.27 115.117 276.02 115.117 275.742C115.117 275.414 115.062 275.139 114.953 274.916C114.843 274.693 114.679 274.525 114.46 274.412C114.242 274.299 113.964 274.242 113.628 274.242C113.324 274.242 113.054 274.303 112.82 274.424C112.589 274.541 112.408 274.709 112.275 274.928C112.146 275.146 112.082 275.404 112.082 275.701H110.998C110.998 275.268 111.107 274.873 111.326 274.518C111.544 274.162 111.851 273.879 112.246 273.668C112.644 273.457 113.105 273.352 113.628 273.352C114.144 273.352 114.595 273.443 114.982 273.627C115.369 273.807 115.669 274.076 115.884 274.436C116.099 274.791 116.207 275.234 116.207 275.766C116.207 275.98 116.156 276.211 116.054 276.457C115.957 276.699 115.802 276.926 115.591 277.137C115.384 277.348 115.115 277.521 114.783 277.658C114.451 277.791 114.052 277.857 113.587 277.857H112.662V277.201ZM112.662 278.092V277.441H113.587C114.13 277.441 114.58 277.506 114.935 277.635C115.291 277.764 115.57 277.936 115.773 278.15C115.98 278.365 116.125 278.602 116.207 278.859C116.292 279.113 116.335 279.367 116.335 279.621C116.335 280.02 116.267 280.373 116.13 280.682C115.998 280.99 115.808 281.252 115.562 281.467C115.32 281.682 115.035 281.844 114.707 281.953C114.378 282.062 114.021 282.117 113.634 282.117C113.263 282.117 112.914 282.064 112.585 281.959C112.261 281.854 111.974 281.701 111.724 281.502C111.474 281.299 111.279 281.051 111.138 280.758C110.998 280.461 110.927 280.123 110.927 279.744H112.011C112.011 280.041 112.076 280.301 112.205 280.523C112.337 280.746 112.525 280.92 112.767 281.045C113.013 281.166 113.302 281.227 113.634 281.227C113.966 281.227 114.251 281.17 114.49 281.057C114.732 280.939 114.917 280.764 115.046 280.529C115.179 280.295 115.246 280 115.246 279.645C115.246 279.289 115.171 278.998 115.023 278.771C114.875 278.541 114.664 278.371 114.39 278.262C114.121 278.148 113.802 278.092 113.435 278.092H112.662ZM123.595 279.129V280.02H117.431V279.381L121.251 273.469H122.136L121.187 275.18L118.662 279.129H123.595ZM122.406 273.469V282H121.322V273.469H122.406Z" fill="#8794BA"/>
<path d="M97.8257 329.422V338H96.7417V330.775L94.5562 331.572V330.594L97.6558 329.422H97.8257ZM106.392 335.691C106.392 336.211 106.271 336.652 106.029 337.016C105.791 337.375 105.466 337.648 105.056 337.836C104.65 338.023 104.191 338.117 103.679 338.117C103.167 338.117 102.707 338.023 102.296 337.836C101.886 337.648 101.562 337.375 101.324 337.016C101.085 336.652 100.966 336.211 100.966 335.691C100.966 335.352 101.031 335.041 101.16 334.76C101.292 334.475 101.478 334.227 101.716 334.016C101.958 333.805 102.244 333.643 102.572 333.529C102.904 333.412 103.269 333.354 103.667 333.354C104.191 333.354 104.658 333.455 105.068 333.658C105.478 333.857 105.8 334.133 106.035 334.484C106.273 334.836 106.392 335.238 106.392 335.691ZM105.302 335.668C105.302 335.352 105.234 335.072 105.097 334.83C104.96 334.584 104.769 334.393 104.523 334.256C104.277 334.119 103.992 334.051 103.667 334.051C103.335 334.051 103.048 334.119 102.806 334.256C102.568 334.393 102.382 334.584 102.25 334.83C102.117 335.072 102.05 335.352 102.05 335.668C102.05 335.996 102.115 336.277 102.244 336.512C102.376 336.742 102.564 336.92 102.806 337.045C103.052 337.166 103.343 337.227 103.679 337.227C104.015 337.227 104.304 337.166 104.546 337.045C104.789 336.92 104.974 336.742 105.103 336.512C105.236 336.277 105.302 335.996 105.302 335.668ZM106.193 331.689C106.193 332.104 106.083 332.477 105.865 332.809C105.646 333.141 105.347 333.402 104.968 333.594C104.589 333.785 104.16 333.881 103.679 333.881C103.191 333.881 102.755 333.785 102.373 333.594C101.994 333.402 101.697 333.141 101.482 332.809C101.267 332.477 101.16 332.104 101.16 331.689C101.16 331.193 101.267 330.771 101.482 330.424C101.701 330.076 102 329.811 102.378 329.627C102.757 329.443 103.189 329.352 103.673 329.352C104.162 329.352 104.595 329.443 104.974 329.627C105.353 329.811 105.65 330.076 105.865 330.424C106.083 330.771 106.193 331.193 106.193 331.689ZM105.109 331.707C105.109 331.422 105.048 331.17 104.927 330.951C104.806 330.732 104.638 330.561 104.423 330.436C104.208 330.307 103.958 330.242 103.673 330.242C103.388 330.242 103.138 330.303 102.923 330.424C102.712 330.541 102.546 330.709 102.425 330.928C102.308 331.146 102.25 331.406 102.25 331.707C102.25 332 102.308 332.256 102.425 332.475C102.546 332.693 102.714 332.863 102.929 332.984C103.144 333.105 103.394 333.166 103.679 333.166C103.964 333.166 104.212 333.105 104.423 332.984C104.638 332.863 104.806 332.693 104.927 332.475C105.048 332.256 105.109 332 105.109 331.707ZM110.136 333.928V334.818H107.277V333.928H110.136ZM116.669 337.109V338H111.085V337.221L113.88 334.109C114.224 333.727 114.49 333.402 114.677 333.137C114.869 332.867 115.001 332.627 115.076 332.416C115.154 332.201 115.193 331.982 115.193 331.76C115.193 331.479 115.134 331.225 115.017 330.998C114.904 330.768 114.736 330.584 114.513 330.447C114.291 330.311 114.021 330.242 113.705 330.242C113.326 330.242 113.009 330.316 112.755 330.465C112.505 330.609 112.318 330.812 112.193 331.074C112.068 331.336 112.005 331.637 112.005 331.977H110.921C110.921 331.496 111.027 331.057 111.238 330.658C111.449 330.26 111.761 329.943 112.175 329.709C112.589 329.471 113.099 329.352 113.705 329.352C114.244 329.352 114.705 329.447 115.087 329.639C115.47 329.826 115.763 330.092 115.966 330.436C116.173 330.775 116.277 331.174 116.277 331.631C116.277 331.881 116.234 332.135 116.148 332.393C116.066 332.646 115.951 332.9 115.802 333.154C115.658 333.408 115.488 333.658 115.292 333.904C115.101 334.15 114.896 334.393 114.677 334.631L112.392 337.109H116.669ZM123.595 335.129V336.02H117.431V335.381L121.251 329.469H122.136L121.187 331.18L118.662 335.129H123.595ZM122.406 329.469V338H121.322V329.469H122.406Z" fill="#8794BA"/>
<path d="M134.871 96H391.371C394.408 96 396.871 98.4624 396.871 101.5C396.871 104.538 394.408 107 391.371 107H134.871V96Z" fill="#EF2A82"/>
<path d="M134.871 153H304.371C307.408 153 309.871 155.462 309.871 158.5C309.871 161.538 307.408 164 304.371 164H134.871V153Z" fill="#EF2A82"/>
<path d="M134.871 210H145.371C148.408 210 150.871 212.462 150.871 215.5C150.871 218.538 148.408 221 145.371 221H134.871V210Z" fill="#EF2A82"/>
<path d="M134.871 267H177.371C180.408 267 182.871 269.462 182.871 272.5C182.871 275.538 180.408 278 177.371 278H134.871V267Z" fill="#EF2A82"/>
<path d="M134.871 324H337.371C340.408 324 342.871 326.462 342.871 329.5C342.871 332.538 340.408 335 337.371 335H134.871V324Z" fill="#EF2A82"/>
<path d="M134.871 110H277.371C280.408 110 282.871 112.462 282.871 115.5C282.871 118.538 280.408 121 277.371 121H134.871V110Z" fill="#0088F0"/>
<path d="M134.871 167H337.371C340.408 167 342.871 169.462 342.871 172.5C342.871 175.538 340.408 178 337.371 178H134.871V167Z" fill="#0088F0"/>
<path d="M134.871 224H177.371C180.408 224 182.871 226.462 182.871 229.5C182.871 232.538 180.408 235 177.371 235H134.871V224Z" fill="#0088F0"/>
<path d="M134.871 281H468.371C471.408 281 473.871 283.462 473.871 286.5C473.871 289.538 471.408 292 468.371 292H134.871V281Z" fill="#0088F0"/>
<path d="M134.871 338H525.371C528.408 338 530.871 340.462 530.871 343.5C530.871 346.538 528.408 349 525.371 349H134.871V338Z" fill="#0088F0"/>
<defs>
<filter id="filter0_d_737_1470" x="0.870605" y="0" width="670" height="480" filterUnits="userSpaceOnUse" color-interpolation-filters="sRGB">
<feFlood flood-opacity="0" result="BackgroundImageFix"/>
<feColorMatrix in="SourceAlpha" type="matrix" values="0 0 0 0 0 0 0 0 0 0 0 0 0 0 0 0 0 0 127 0" result="hardAlpha"/>
<feMorphology radius="15" operator="erode" in="SourceAlpha" result="effect1_dropShadow_737_1470"/>
<feOffset dy="18"/>
<feGaussianBlur stdDeviation="25"/>
<feColorMatrix type="matrix" values="0 0 0 0 0.0996452 0 0 0 0 0.164326 0 0 0 0 0.350284 0 0 0 0.2 0"/>
<feBlend mode="normal" in2="BackgroundImageFix" result="effect1_dropShadow_737_1470"/>
<feBlend mode="normal" in="SourceGraphic" in2="effect1_dropShadow_737_1470" result="shape"/>
</filter>
</defs>
</svg>
